<svg >
<symbol viewBox="0 0 212.646728515625 159.98291015625" version="1.1" xmlns="http://www.w3.org/2000/svg" style="width: 57.34161342185139px; height: 43.140462363654px; " classname=" layout-box" id="gear">
<g transform="matrix(1 0 0 1 42.60272705078114 115.221435546875)"><path d="M 63.7207 12.5488 C 64.9902 12.5488 66.2109 12.4023 67.5293 12.3047 L 70.3125 17.6758 C 70.8496 18.75 71.9238 19.3359 73.291 19.1406 C 74.5117 18.8965 75.3418 18.0176 75.5371 16.6992 L 76.3672 10.791 C 78.8086 10.1562 81.2012 9.22852 83.4961 8.20312 L 87.8906 12.1582 C 88.8184 13.0371 89.9902 13.2324 91.2109 12.5488 C 92.2852 11.9629 92.7246 10.791 92.4805 9.52148 L 91.2598 3.66211 C 93.3105 2.24609 95.3125 0.634766 97.1191 -1.17188 L 102.539 1.12305 C 103.76 1.61133 104.932 1.36719 105.859 0.244141 C 106.689 -0.634766 106.787 -1.9043 106.055 -2.97852 L 102.881 -8.05664 C 104.346 -10.1074 105.518 -12.3047 106.641 -14.6484 L 112.646 -14.3555 C 113.916 -14.3066 114.941 -14.9902 115.381 -16.2109 C 115.771 -17.4316 115.43 -18.6035 114.404 -19.3848 L 109.717 -23.0957 C 110.352 -25.4395 110.84 -27.9785 111.084 -30.6152 L 116.699 -32.373 C 117.969 -32.8125 118.701 -33.7402 118.701 -35.0586 C 118.701 -36.3281 117.969 -37.2559 116.699 -37.6953 L 111.084 -39.502 C 110.84 -42.1387 110.352 -44.5801 109.717 -46.9727 L 114.404 -50.7324 C 115.381 -51.4648 115.771 -52.5879 115.381 -53.8086 C 114.941 -55.0293 113.916 -55.7129 112.646 -55.6641 L 106.641 -55.4199 C 105.518 -57.7637 104.346 -59.9609 102.881 -62.0117 L 106.055 -67.0898 C 106.738 -68.1152 106.641 -69.3848 105.859 -70.2637 C 104.932 -71.3867 103.76 -71.6797 102.539 -71.1426 L 97.1191 -68.9453 C 95.3125 -70.6543 93.3105 -72.3145 91.2598 -73.7305 L 92.4805 -79.541 C 92.7246 -80.8594 92.2852 -82.0312 91.2109 -82.6172 C 89.9902 -83.252 88.8184 -83.1543 87.8906 -82.1777 L 83.4961 -78.3203 C 81.2012 -79.3457 78.8086 -80.1758 76.3672 -80.8594 L 75.5371 -86.7676 C 75.3418 -88.0371 74.4629 -88.9648 73.2422 -89.1602 C 71.9238 -89.3555 70.8496 -88.8184 70.3125 -87.7441 L 67.5293 -82.373 C 66.2109 -82.4707 64.9902 -82.5684 63.7207 -82.5684 C 62.4023 -82.5684 61.2305 -82.4707 59.9121 -82.373 L 57.0801 -87.7441 C 56.543 -88.8184 55.4688 -89.3555 54.1504 -89.1602 C 52.9297 -88.9648 52.0508 -88.0371 51.9043 -86.7676 L 51.0254 -80.9082 C 48.584 -80.1758 46.2402 -79.3457 43.8965 -78.3203 L 39.502 -82.1777 C 38.5742 -83.1543 37.4023 -83.252 36.1816 -82.6172 C 35.1074 -82.0312 34.668 -80.8594 34.9121 -79.541 L 36.1328 -73.7305 C 34.1309 -72.3145 32.0801 -70.6543 30.2734 -68.9453 L 24.8535 -71.1426 C 23.6328 -71.6797 22.5098 -71.3867 21.582 -70.2637 C 20.752 -69.3848 20.6543 -68.1152 21.3379 -67.1387 L 24.5117 -62.0117 C 23.0957 -59.9609 21.875 -57.7637 20.752 -55.4199 L 14.7949 -55.6641 C 13.5254 -55.7129 12.4512 -55.0293 12.0117 -53.8086 C 11.6211 -52.5879 11.9629 -51.4648 12.9883 -50.7324 L 17.6758 -46.9727 C 17.041 -44.5801 16.5527 -42.1387 16.4062 -39.502 L 10.6934 -37.6953 C 9.42383 -37.3047 8.74023 -36.377 8.74023 -35.0586 C 8.74023 -33.7402 9.42383 -32.8125 10.6934 -32.373 L 16.4062 -30.5664 C 16.5527 -27.9785 17.041 -25.4395 17.6758 -23.0957 L 12.9883 -19.3848 C 12.0117 -18.6035 11.6699 -17.4316 12.0117 -16.2109 C 12.4512 -14.9902 13.5254 -14.3066 14.7949 -14.3555 L 20.752 -14.6484 C 21.875 -12.3047 23.0957 -10.1074 24.5117 -8.05664 L 21.3379 -2.97852 C 20.6543 -1.9043 20.752 -0.634766 21.582 0.244141 C 22.5098 1.36719 23.6328 1.61133 24.8535 1.12305 L 30.2734 -1.17188 C 32.0801 0.634766 34.1309 2.24609 36.1328 3.66211 L 34.9121 9.52148 C 34.668 10.791 35.1074 11.9629 36.1816 12.5488 C 37.4023 13.2324 38.5742 13.0371 39.502 12.1582 L 43.8965 8.20312 C 46.2402 9.22852 48.584 10.1562 51.0254 10.791 L 51.9043 16.6992 C 52.0508 18.0176 52.9297 18.8965 54.1504 19.1406 C 55.4688 19.3359 56.543 18.75 57.0801 17.6758 L 59.9121 12.3047 C 61.1816 12.4023 62.4023 12.5488 63.7207 12.5488 Z M 75.9766 -38.1348 C 73.7305 -44.2871 69.1895 -47.6562 63.623 -47.6562 C 62.7441 -47.6562 61.8164 -47.5586 60.2051 -47.2168 L 46.1914 -71.1426 C 51.4648 -73.7305 57.373 -75.1465 63.7207 -75.1465 C 85.0098 -75.1465 101.709 -58.9844 103.271 -38.1348 Z M 24.0723 -35.0098 C 24.0723 -48.584 30.5176 -60.5469 40.5762 -67.7734 L 54.7363 -43.7012 C 52.0508 -40.9668 50.8301 -37.9883 50.8301 -34.8145 C 50.8301 -31.7383 52.002 -28.9062 54.6875 -26.0742 L 40.2832 -2.44141 C 30.3711 -9.7168 24.0723 -21.5332 24.0723 -35.0098 Z M 57.7637 -34.8633 C 57.7637 -38.1836 60.5469 -40.7715 63.7207 -40.7715 C 66.9922 -40.7715 69.7266 -38.1836 69.7266 -34.8633 C 69.7266 -31.5918 66.9922 -28.9062 63.7207 -28.9062 C 60.5469 -28.9062 57.7637 -31.5918 57.7637 -34.8633 Z M 63.7207 5.12695 C 57.2266 5.12695 51.1719 3.61328 45.8496 0.976562 L 60.2051 -22.5098 C 61.7188 -22.1191 62.7441 -22.0215 63.623 -22.0215 C 69.2383 -22.0215 73.7793 -25.4883 75.9766 -31.7871 L 103.223 -31.7871 C 101.66 -11.0352 85.0098 5.12695 63.7207 5.12695 Z"></path></g>
</symbol>

<symbol viewBox="0 0 212.646728515625 159.98291015625" version="1.1" xmlns="http://www.w3.org/2000/svg" style="width: 57.34161342185139px; height: 43.140462363654px; " classname=" layout-box" id="help">
<g transform="matrix(1 0 0 1 47.778210449218705 115.221435546875)"><path d="M 58.5449 14.5508 C 85.791 14.5508 108.35 -8.00781 108.35 -35.2539 C 108.35 -62.4512 85.7422 -85.0586 58.4961 -85.0586 C 31.2988 -85.0586 8.74023 -62.4512 8.74023 -35.2539 C 8.74023 -8.00781 31.3477 14.5508 58.5449 14.5508 Z M 58.5449 6.25 C 35.498 6.25 17.0898 -12.207 17.0898 -35.2539 C 17.0898 -58.252 35.4492 -76.7578 58.4961 -76.7578 C 81.543 -76.7578 100 -58.252 100.049 -35.2539 C 100.098 -12.207 81.5918 6.25 58.5449 6.25 Z M 57.5195 -25.1465 C 60.0098 -25.1465 61.4746 -26.6602 61.4746 -28.6133 L 61.4746 -29.1992 C 61.4746 -31.9336 63.0859 -33.6426 66.4551 -35.8887 C 71.1914 -39.0137 74.5605 -41.8945 74.5605 -47.7051 C 74.5605 -55.8594 67.334 -60.2051 59.082 -60.2051 C 50.6836 -60.2051 45.166 -56.25 43.7988 -51.7578 C 43.5547 -50.9277 43.4082 -50.1465 43.4082 -49.3164 C 43.4082 -47.168 45.1172 -45.9473 46.7285 -45.9473 C 49.5117 -45.9473 49.9512 -47.4609 51.5137 -49.2676 C 53.125 -51.9531 55.4688 -53.5645 58.7402 -53.5645 C 63.1836 -53.5645 66.1133 -51.0742 66.1133 -47.3145 C 66.1133 -43.9941 64.0137 -42.3828 59.7656 -39.4531 C 56.25 -37.0117 53.6621 -34.4238 53.6621 -29.6387 L 53.6621 -29.0039 C 53.6621 -26.416 55.0293 -25.1465 57.5195 -25.1465 Z M 57.4219 -10.5469 C 60.2539 -10.5469 62.6953 -12.793 62.6953 -15.625 C 62.6953 -18.5059 60.3027 -20.7031 57.4219 -20.7031 C 54.541 -20.7031 52.1484 -18.457 52.1484 -15.625 C 52.1484 -12.8418 54.5898 -10.5469 57.4219 -10.5469 Z"></path></g>
</symbol>

<symbol viewBox="0 0 212.646728515625 159.98291015625" version="1.1" xmlns="http://www.w3.org/2000/svg" style="width: 57.34161342185139px; height: 43.140462363654px; " classname=" layout-box" id="lock">
<g transform="matrix(1 0 0 1 47.778210449218705 115.221435546875)"><path d="M 58.5449 14.5508 C 85.791 14.5508 108.35 -8.00781 108.35 -35.2539 C 108.35 -62.4512 85.7422 -85.0586 58.4961 -85.0586 C 31.2988 -85.0586 8.74023 -62.4512 8.74023 -35.2539 C 8.74023 -8.00781 31.3477 14.5508 58.5449 14.5508 Z M 58.5449 6.25 C 35.498 6.25 17.0898 -12.207 17.0898 -35.2539 C 17.0898 -58.252 35.4492 -76.7578 58.4961 -76.7578 C 81.543 -76.7578 100 -58.252 100.049 -35.2539 C 100.098 -12.207 81.5918 6.25 58.5449 6.25 Z M 45.8496 -11.6699 L 71.2402 -11.6699 C 74.6094 -11.6699 76.2207 -13.3301 76.2207 -16.9922 L 76.2207 -36.5234 C 76.2207 -39.7461 75 -41.4062 72.4121 -41.7969 L 72.4121 -47.6074 C 72.4121 -57.1289 66.6504 -63.2812 58.5449 -63.2812 C 50.4395 -63.2812 44.6777 -57.1289 44.6777 -47.6074 L 44.6777 -41.748 C 42.0898 -41.3574 40.8691 -39.6973 40.8691 -36.5234 L 40.8691 -16.9922 C 40.8691 -13.3301 42.4805 -11.6699 45.8496 -11.6699 Z M 49.7559 -48.1445 C 49.7559 -54.2969 53.2715 -58.3496 58.5449 -58.3496 C 63.8184 -58.3496 67.334 -54.2969 67.334 -48.1445 L 67.334 -41.8457 L 49.7559 -41.8457 Z"></path></g>
</symbol>

</svg>
